<?xml version="1.0" encoding="UTF-8" standalone="no"?>
<!DOCTYPE svg PUBLIC "-//W3C//DTD SVG 1.1//EN" "http://www.w3.org/Graphics/SVG/1.1/DTD/svg11.dtd">
<svg width="400.00" height="400.00" viewBox="0.00 0.00 1944.00 1944.00" xmlns="http://www.w3.org/2000/svg" xmlns:xlink="http://www.w3.org/1999/xlink">
<g stroke-linecap="round" transform="translate(772.00, 772.00)" id="logo">
<path d="M-486.66,-73.20 C-487.16,-72.45 -488.14,-70.72 -488.69,-69.46 C-489.08,-68.59 -490.80,-63.64 -490.86,-63.49 C-491.64,-61.39 -491.93,-59.43 -491.62,-57.88 C-491.57,-57.66 -487.70,-49.56 -485.73,-46.85 C-481.67,-41.38 -470.56,-31.04 -465.89,-27.67 C-461.25,-24.37 -450.65,-19.32 -440.88,-15.30 C-431.38,-11.56 -420.42,-7.69 -410.48,-4.82 C-403.21,-2.94 -388.29,0.38 -380.83,1.65 C-373.30,2.82 -354.48,5.08 -349.46,5.42 C-338.11,6.16 -305.73,5.80 -287.03,4.63 C-267.64,2.89 -241.18,-0.95 -226.23,-3.54 C-211.77,-6.22 -142.18,-23.14 -114.63,-30.06 C-80.31,-38.87 -12.21,-56.40 21.58,-65.13 C38.10,-69.47 68.76,-77.61 82.90,-81.42 C100.16,-86.28 134.52,-96.33 146.96,-100.45 C158.72,-104.20 185.10,-110.95 200.73,-114.03 C232.21,-119.60 294.04,-130.52 324.38,-135.87 C340.14,-138.29 371.64,-142.81 387.30,-144.61 C403.27,-146.22 434.33,-148.53 450.59,-149.18 C464.42,-149.41 499.50,-149.51 506.83,-149.22 C517.91,-148.73 553.44,-145.58 569.66,-143.72 C582.37,-142.09 620.87,-133.61 625.42,-132.32 C635.15,-129.53 701.84,-104.07 715.72,-98.63 C726.21,-94.43 733.16,-90.74 742.36,-85.32 C748.68,-81.48 762.22,-73.13 768.32,-68.18 C772.39,-64.86 787.69,-50.88 790.59,-47.95 C794.55,-43.93 801.13,-36.03 807.51,-27.84 C810.25,-24.22 820.84,-8.23 824.08,-2.38 C828.78,6.33 833.81,16.37 837.17,24.21 C843.99,41.03 853.22,66.47 857.94,83.05 C860.64,92.82 862.25,99.62 863.83,108.11 C865.44,117.79 866.04,126.08 866.36,138.39 C866.39,149.79 865.73,161.87 864.82,168.89 C863.89,175.88 861.42,187.43 858.79,197.76 C856.49,206.26 845.97,237.59 839.97,252.07 C835.04,263.34 819.95,290.99 812.33,303.57 C802.22,319.34 784.85,343.87 777.09,353.39 C772.18,359.26 760.00,372.88 756.68,376.19 C753.39,379.47 739.58,391.82 733.84,396.62 C726.85,402.35 701.80,419.91 682.77,432.10 C671.36,439.12 643.70,454.00 629.66,461.44 C614.41,469.36 580.39,486.74 570.21,491.43 C557.95,496.72 528.08,508.70 512.94,514.68 C504.86,517.90 468.86,528.24 452.30,532.91 C438.61,536.67 422.40,541.13 419.89,541.83" fill="none" stroke="rgb(51, 27, 10)" stroke-width="28.69" stroke-opacity="1.00" stroke-linejoin="round"/>
<path d="M449.89,450.30 C449.89,450.30 449.46,448.75 449.46,448.75 C445.03,450.28 419.48,469.08 409.18,476.51 C403.49,481.03 390.58,491.43 388.60,493.67 C386.55,496.04 383.06,500.45 380.49,504.13 C376.27,510.24 374.37,513.70 373.82,516.18 C373.16,519.40 373.53,525.38 373.73,528.23" fill="none" stroke="rgb(51, 27, 10)" stroke-width="28.69" stroke-opacity="1.00" stroke-linejoin="round"/>
<path d="M387.58,534.90 C393.79,534.58 408.40,533.81 416.79,533.37 C425.07,532.93 437.04,532.30 440.71,532.11" fill="none" stroke="rgb(51, 27, 10)" stroke-width="28.69" stroke-opacity="1.00" stroke-linejoin="round"/>
<path d="M388.02,535.44 C388.21,535.71 388.38,535.88 388.55,535.97 C388.98,536.18 405.06,539.99 407.70,540.43 C411.13,540.99 416.93,541.30 422.40,541.22 C429.15,541.08 440.33,539.90 443.86,539.53" fill="none" stroke="rgb(51, 27, 10)" stroke-width="28.69" stroke-opacity="1.00" stroke-linejoin="round"/>
<path d="M356.30,358.64 C356.37,359.26 355.52,361.80 356.74,364.34 C357.65,366.19 369.19,379.74 373.88,384.06 C378.54,388.33 389.47,396.19 394.96,399.77 C400.39,403.30 415.10,411.22 421.73,414.67 C434.69,421.19 462.51,432.95 478.08,439.71 C487.74,443.77 496.26,446.81 503.12,449.07 C509.91,451.24 524.60,455.54 530.95,456.13 C533.88,456.40 553.93,457.27 557.27,457.48 C569.21,458.35 582.60,459.33 584.05,459.44" fill="none" stroke="rgb(51, 27, 10)" stroke-width="28.69" stroke-opacity="1.00" stroke-linejoin="round"/>
<path d="M364.04,401.67 C364.19,402.53 363.69,403.85 362.47,405.26 C361.97,405.82 356.19,411.44 354.90,413.24 C344.54,427.94 336.33,438.78 321.54,456.92 C311.53,468.92 291.39,491.70 280.38,503.25 C273.18,510.64 265.24,517.98 260.25,521.85 C255.68,525.37 244.94,532.03 238.55,534.44 C235.58,535.54 233.19,536.08 229.10,536.63 C225.78,537.02 221.30,536.41 218.67,536.02 C215.74,535.62 210.93,534.95 209.04,534.67" fill="none" stroke="rgb(51, 27, 10)" stroke-width="28.69" stroke-opacity="1.00" stroke-linejoin="round"/>
<path d="M497.20,-231.91 C500.27,-226.89 509.23,-216.89 510.78,-214.57 C512.87,-211.42 558.50,-135.64 569.21,-116.67 C575.19,-105.77 589.91,-75.42 596.09,-61.34 C601.02,-49.84 608.50,-28.89 614.64,-9.90 C619.93,7.23 627.09,36.31 629.30,46.88 C632.13,62.14 635.93,91.97 636.80,106.05 C637.14,114.83 637.70,152.03 637.92,167.32 C637.88,174.71 637.45,193.64 636.98,200.21 C636.07,211.08 634.90,220.95 633.18,228.49 C631.99,233.60 627.52,243.28 626.72,244.36 C626.33,244.84 622.26,243.53 619.76,242.37 C613.21,239.31 607.67,236.11 598.51,229.43 C595.17,226.96 589.12,222.49 586.43,220.49" fill="none" stroke="rgb(51, 27, 10)" stroke-width="28.69" stroke-opacity="1.00" stroke-linejoin="round"/>
<path d="M403.73,112.47 C403.69,113.41 403.60,115.31 403.54,115.72 C403.52,115.87 403.47,116.06 403.39,116.30" fill="none" stroke="rgb(51, 27, 10)" stroke-width="28.69" stroke-opacity="1.00" stroke-linejoin="round"/>
<path d="M396.18,126.20 C395.26,125.79 392.73,124.64 392.06,124.31 C391.63,124.10 390.76,123.67 389.45,123.01 C392.62,123.84 395.85,124.26 401.14,124.22 C413.58,124.02 441.29,121.46 455.09,120.03 C484.33,116.11 545.55,108.01 576.13,104.57 C607.59,101.20 678.19,93.62 695.59,91.39 C708.86,89.50 736.71,85.28 751.29,82.95 C764.28,80.51 786.37,75.58 803.38,71.07 C815.14,67.93 846.88,55.19 857.87,50.41 C864.84,47.34 877.73,41.31 884.80,38.11 C886.91,37.15 923.81,17.65 923.86,17.63 C925.90,16.65 941.32,10.18 944.22,8.96" fill="none" stroke="rgb(51, 27, 10)" stroke-width="28.69" stroke-opacity="1.00" stroke-linejoin="round"/>
<path d="M925.15,-14.23 C925.52,-13.44 926.94,-7.63 928.56,-3.86 C929.26,-2.25 938.77,14.80 941.21,20.62 C942.30,23.15 944.13,27.42 944.65,28.16" fill="none" stroke="rgb(51, 27, 10)" stroke-width="28.69" stroke-opacity="1.00" stroke-linejoin="round"/>
<path d="M926.72,74.65 C927.51,76.77 927.17,82.57 926.95,86.00 C926.70,90.18 927.07,92.48 928.37,97.24 C928.94,99.25 929.97,102.96 930.44,104.66 C930.99,106.69 931.51,108.79 931.78,109.94" fill="none" stroke="rgb(51, 27, 10)" stroke-width="28.69" stroke-opacity="1.00" stroke-linejoin="round"/>
<path d="M936.50,87.78 C935.29,87.27 918.35,87.33 913.92,88.73 C912.38,89.24 901.86,93.45 900.26,94.17 C895.54,96.32 890.52,99.85 889.49,101.43 C887.55,104.53 887.64,107.04 887.69,111.77 C887.71,114.41 888.19,120.40 888.95,121.60 C889.91,122.98 895.37,125.16 899.08,125.69 C900.97,125.96 904.12,126.41 905.38,126.59" fill="none" stroke="rgb(51, 27, 10)" stroke-width="28.69" stroke-opacity="1.00" stroke-linejoin="round"/>
<path d="M927.08,74.68 C927.08,74.68 926.58,72.51 926.58,72.51 C927.32,75.29 928.16,82.00 928.89,90.36 C929.20,93.70 930.01,101.52 930.23,103.00 C930.47,104.71 930.99,107.82 931.20,109.00" fill="none" stroke="rgb(51, 27, 10)" stroke-width="28.69" stroke-opacity="1.00" stroke-linejoin="round"/>
<path d="M927.08,87.74 C927.51,88.17 934.19,87.83 937.00,88.06 C938.60,88.19 941.94,88.83 944.26,89.36 C945.58,89.67 947.71,90.18 948.52,90.37" fill="none" stroke="rgb(51, 27, 10)" stroke-width="28.69" stroke-opacity="1.00" stroke-linejoin="round"/>
<path d="M928.53,172.77 C928.53,172.77 929.16,173.25 929.16,173.25 C929.95,172.14 930.22,168.30 929.83,163.06 C929.25,155.67 926.88,147.01 925.55,145.88 C924.57,145.52 919.09,146.73 916.41,147.65 C913.23,148.89 910.16,151.16 909.32,153.22 C907.51,157.97 905.68,176.92 905.07,180.27 C904.87,181.36 904.40,182.88 903.80,184.72 C901.78,185.17 900.70,184.93 899.55,183.56 C897.00,180.63 894.57,177.45 891.14,172.47 C889.27,169.74 887.21,166.13 886.56,163.43 C886.41,162.77 886.34,160.04 886.39,159.18 C886.46,158.10 886.88,154.41 887.05,153.04" fill="none" stroke="rgb(51, 27, 10)" stroke-width="28.69" stroke-opacity="1.00" stroke-linejoin="round"/>
<path d="M923.86,214.88 C923.86,214.88 924.23,214.87 924.23,214.87 C923.01,215.31 907.36,213.21 903.23,213.44 C898.80,213.74 888.33,218.85 885.74,220.96 C883.94,222.44 879.32,227.49 878.30,229.62 C877.86,230.60 877.54,232.36 877.48,233.97 C877.48,235.33 878.36,237.25 879.55,238.40 C883.27,241.85 893.58,246.10 897.08,246.56 C900.72,247.02 916.77,247.46 919.46,247.94 C920.83,248.19 922.07,248.57 922.08,248.69 C919.51,249.53 900.94,249.26 892.69,249.14 C884.62,249.16 876.07,250.49 873.75,251.28 C873.25,251.46 869.41,253.06 867.52,253.82 C866.54,254.20 865.56,254.59 864.58,254.97" fill="none" stroke="rgb(51, 27, 10)" stroke-width="28.69" stroke-opacity="1.00" stroke-linejoin="round"/>
<path d="M909.15,299.43 C909.15,299.43 910.88,301.45 910.88,301.45 C910.56,302.17 901.07,299.23 890.70,294.66 C883.67,291.53 868.14,284.70 865.16,283.61 C861.58,282.31 850.49,279.95 848.90,279.34 C848.78,279.29 846.77,278.33 845.03,277.54 C844.40,277.26 843.78,276.98 843.15,276.69" fill="none" stroke="rgb(51, 27, 10)" stroke-width="28.69" stroke-opacity="1.00" stroke-linejoin="round"/>
<path d="M886.31,318.37 C885.39,316.59 882.87,313.79 880.56,311.55 C878.43,309.49 874.48,305.63 873.16,303.76 C872.33,302.57 867.03,294.46 866.73,294.13 C865.98,293.31 863.79,291.58 863.79,291.58 C862.27,293.76 845.72,313.53 842.69,315.94" fill="none" stroke="rgb(51, 27, 10)" stroke-width="28.69" stroke-opacity="1.00" stroke-linejoin="round"/>
<path d="M855.55,364.72 C849.31,358.07 828.40,345.19 823.97,341.05 C822.44,339.61 817.38,334.07 815.46,332.81 C815.18,332.63 814.68,332.36 813.96,332.02" fill="none" stroke="rgb(51, 27, 10)" stroke-width="28.69" stroke-opacity="1.00" stroke-linejoin="round"/>
<path d="M883.46,364.35 C882.55,365.23 881.11,366.09 879.16,366.83 C878.75,366.98 870.57,369.79 868.38,370.87 C867.33,371.40 865.44,372.55 864.27,373.30" fill="none" stroke="rgb(51, 27, 10)" stroke-width="28.69" stroke-opacity="1.00" stroke-linejoin="round"/>
<path d="M344.95,-222.88 C343.97,-220.53 340.96,-215.75 339.08,-212.72 C336.27,-208.09 332.25,-195.99 330.48,-190.40 C325.64,-174.81 312.96,-133.80 311.59,-128.32 C308.18,-114.69 303.47,-87.31 301.26,-73.56 C298.49,-55.74 293.28,-21.17 290.84,-4.43 C289.41,8.45 286.54,36.13 285.10,50.94 C282.83,82.38 279.56,140.61 277.81,171.35 C276.68,189.25 274.55,223.90 273.54,240.65 C272.65,258.12 271.36,287.15 271.26,301.96 C271.22,317.14 273.30,346.05 274.71,354.46 C276.11,361.90 279.56,379.49 280.31,381.98 C281.43,385.49 283.99,393.37 285.44,397.74 C285.74,398.67 286.05,399.60 286.36,400.53" fill="none" stroke="rgb(51, 27, 10)" stroke-width="28.69" stroke-opacity="1.00" stroke-linejoin="round"/>
<path d="M304.14,-224.27 C304.41,-224.70 304.54,-224.88 304.53,-224.78 C304.53,-224.72 304.32,-224.09 303.91,-222.88 C302.00,-217.24 298.43,-211.41 290.73,-199.49 C289.82,-198.05 289.24,-197.07 288.87,-196.37" fill="none" stroke="rgb(51, 27, 10)" stroke-width="28.69" stroke-opacity="1.00" stroke-linejoin="round"/>
<path d="M301.85,-215.83 C308.54,-218.13 316.10,-219.52 326.68,-221.13 C337.19,-222.68 345.55,-223.37 353.87,-222.55 C366.33,-221.18 370.20,-221.01 371.96,-221.45 C375.40,-222.31 376.53,-222.45 378.06,-222.06 C378.59,-221.92 379.19,-221.77 379.85,-221.61" fill="none" stroke="rgb(51, 27, 10)" stroke-width="28.69" stroke-opacity="1.00" stroke-linejoin="round"/>
<path d="M375.27,-222.94 C375.27,-222.94 375.51,-222.46 375.51,-222.46 C377.27,-220.65 382.18,-214.20 382.93,-213.31 C383.76,-212.34 385.99,-210.23 386.85,-209.72 C387.28,-209.48 388.35,-208.94 390.04,-208.11" fill="none" stroke="rgb(51, 27, 10)" stroke-width="28.69" stroke-opacity="1.00" stroke-linejoin="round"/>
<path d="M499.39,-231.56 C498.81,-229.25 486.51,-214.22 483.79,-210.27 C481.71,-207.22 475.64,-195.94 469.61,-187.69 C463.40,-178.93 457.55,-169.72 455.23,-163.83 C454.65,-162.36 453.44,-158.98 453.00,-157.74" fill="none" stroke="rgb(51, 27, 10)" stroke-width="28.69" stroke-opacity="1.00" stroke-linejoin="round"/>
<path d="M474.19,-179.60 C476.45,-180.44 477.66,-180.84 478.54,-180.92 C480.52,-181.10 489.68,-181.37 492.51,-181.68 C494.89,-181.94 503.19,-183.43 507.37,-183.51 C514.74,-183.61 522.19,-182.25 523.25,-182.05 C524.30,-181.84 525.35,-181.62 526.39,-181.41" fill="none" stroke="rgb(51, 27, 10)" stroke-width="28.69" stroke-opacity="1.00" stroke-linejoin="round"/>
<path d="M263.08,325.84 C262.33,327.91 262.72,330.25 262.60,331.89 C262.29,335.89 254.73,380.28 252.96,387.63 C251.48,393.73 248.36,401.90 243.37,413.91 C240.28,421.25 233.97,436.12 230.77,443.66 C226.50,453.35 220.93,464.08 217.20,471.26 C211.31,482.67 209.10,487.66 206.66,495.93 C205.61,499.57 201.93,513.70 201.09,519.97 C200.57,524.18 199.67,531.43 199.30,534.47" fill="none" stroke="rgb(51, 27, 10)" stroke-width="28.69" stroke-opacity="1.00" stroke-linejoin="round"/>
<path d="M-261.94,-114.95 C-261.90,-114.99 -262.05,-114.88 -262.10,-114.83 C-264.74,-112.44 -268.91,-107.48 -269.94,-105.77 C-272.55,-101.38 -275.01,-93.54 -277.66,-82.97 C-280.20,-71.97 -287.20,-38.24 -290.68,-23.79 C-294.31,-9.62 -301.57,19.66 -305.18,34.78 C-308.27,49.10 -314.20,78.26 -316.73,93.43 C-319.18,109.58 -322.57,136.00 -324.10,151.45 C-326.63,184.57 -331.01,248.27 -332.86,278.85 C-333.32,294.45 -334.18,329.53 -333.73,335.67 C-333.09,343.73 -331.45,360.77 -330.64,365.85 C-328.03,380.81 -322.42,412.06 -319.42,428.35 C-316.64,442.81 -311.39,469.00 -307.43,484.12 C-304.05,496.15 -293.02,528.61 -288.71,537.71 C-283.85,547.63 -282.38,549.89 -273.07,561.98 C-271.82,563.61 -269.69,566.37 -268.82,567.51" fill="none" stroke="rgb(51, 27, 10)" stroke-width="28.69" stroke-opacity="1.00" stroke-linejoin="round"/>
<path d="M-240.34,387.64 C-239.34,395.33 -239.19,401.54 -239.41,413.29 C-239.87,428.06 -242.10,453.57 -244.36,467.85 C-246.96,483.82 -252.79,520.57 -254.05,525.34 C-255.02,528.86 -257.40,533.30 -260.78,538.59 C-263.72,543.17 -265.27,545.45 -267.53,547.78 C-269.80,550.05 -271.97,551.23 -277.19,553.44 C-278.16,553.83 -280.61,554.74 -281.44,555.04" fill="none" stroke="rgb(51, 27, 10)" stroke-width="28.69" stroke-opacity="1.00" stroke-linejoin="round"/>
<path d="M-157.09,389.45 C-157.46,392.51 -160.09,404.54 -161.16,412.89 C-161.80,417.97 -161.97,435.89 -161.96,443.74 C-161.16,480.34 -155.98,515.05 -154.72,519.72 C-153.80,522.96 -151.41,527.36 -149.55,529.06 C-146.74,531.57 -142.27,534.22 -138.10,536.07 C-136.56,536.73 -134.00,537.83 -132.99,538.27" fill="none" stroke="rgb(51, 27, 10)" stroke-width="28.69" stroke-opacity="1.00" stroke-linejoin="round"/>
<path d="M-72.95,-137.27 C-72.95,-137.27 -72.90,-139.57 -72.90,-139.57" fill="none" stroke="rgb(51, 27, 10)" stroke-width="28.69" stroke-opacity="1.00" stroke-linejoin="round"/>
<path d="M-69.39,-144.81 C-69.39,-144.81 -68.72,-145.42 -68.72,-145.42 C-67.84,-145.43 -65.64,-143.12 -64.92,-139.38 C-64.43,-136.71 -64.82,-119.35 -64.58,-113.35 C-64.41,-109.12 -55.88,-22.26 -53.60,7.16 C-52.86,15.18 -42.00,107.53 -40.05,129.75 C-39.54,137.42 -38.70,152.81 -38.37,160.52 C-38.21,175.58 -39.05,206.07 -39.91,221.35 C-41.16,237.44 -44.17,265.95 -46.00,279.61 C-48.33,295.99 -53.22,330.03 -55.78,347.67 C-58.33,363.88 -63.26,392.51 -66.23,406.84 C-69.65,422.49 -77.43,456.19 -80.31,465.97 C-82.38,472.42 -86.83,485.12 -89.22,491.39 C-91.06,496.04 -97.29,509.99 -100.30,514.93 C-104.37,521.56 -124.42,546.43 -125.34,547.58" fill="none" stroke="rgb(51, 27, 10)" stroke-width="28.69" stroke-opacity="1.00" stroke-linejoin="round"/>
<path d="M-104.68,107.33 C-104.68,107.33 -103.98,109.98 -103.98,109.98 C-103.98,109.98 -115.89,125.39 -115.89,125.39 C-114.64,123.15 -105.68,111.82 -101.34,107.18 C-97.01,102.56 -85.75,93.64 -79.69,89.04 C-65.79,78.70 -41.16,62.84 -29.13,55.23 C-20.94,50.35 -5.48,42.17 -2.34,40.84 C3.00,38.61 17.56,36.20 24.18,36.34 C27.05,36.41 35.12,37.28 37.68,38.03 C40.67,38.94 47.42,42.70 50.55,45.00 C54.12,47.66 58.09,51.20 59.07,52.63 C60.37,54.63 61.15,56.86 61.16,59.04 C61.14,62.27 60.07,69.29 59.02,72.07 C56.48,78.55 51.80,86.35 44.67,97.15 C40.55,103.19 32.48,114.40 25.97,122.71 C19.79,130.40 10.72,139.87 5.37,144.73 C-5.63,154.43 -36.94,180.87 -39.32,182.55 C-56.42,194.28 -69.39,201.54 -74.50,203.50 C-77.79,204.73 -83.97,205.72 -88.49,205.76 C-90.21,205.75 -93.06,205.74 -94.19,205.73" fill="none" stroke="rgb(51, 27, 10)" stroke-width="28.69" stroke-opacity="1.00" stroke-linejoin="round"/>
<path d="M-112.52,127.84 C-114.18,131.12 -115.30,135.84 -115.40,140.69 C-115.46,149.19 -114.37,160.58 -112.90,165.57 C-111.94,168.75 -105.42,184.42 -103.98,188.43 C-101.70,194.51 -93.94,206.73 -91.25,208.50 C-90.73,208.84 -87.03,210.19 -85.04,210.98" fill="none" stroke="rgb(51, 27, 10)" stroke-width="28.69" stroke-opacity="1.00" stroke-linejoin="round"/>
<path d="M1.20,90.62 C0.37,91.50 -5.89,94.83 -8.64,96.35 C-13.16,98.88 -18.52,102.04 -21.04,103.86 C-22.97,105.28 -33.12,114.29 -43.13,121.76 C-56.45,131.46 -71.10,141.84 -89.91,156.71 C-91.90,158.26 -95.11,160.73 -96.33,161.65 C-97.48,162.51 -100.39,164.70 -102.15,166.04 C-103.02,166.70 -103.89,167.37 -104.76,168.03" fill="none" stroke="rgb(51, 27, 10)" stroke-width="28.69" stroke-opacity="1.00" stroke-linejoin="round"/>
<path d="M-265.94,142.67 C-265.94,142.67 -263.87,141.95 -263.87,141.95 C-261.79,142.98 -260.40,143.99 -259.56,145.41 C-257.61,148.76 -252.81,164.97 -250.57,172.35 C-249.09,177.35 -247.83,182.30 -247.52,184.98 C-247.23,187.66 -246.92,195.59 -247.12,197.93 C-247.56,202.69 -250.49,211.48 -251.48,213.94 C-253.15,212.70 -257.41,207.09 -259.30,204.31 C-261.73,200.70 -264.46,195.30 -265.78,191.43 C-267.53,186.21 -269.18,171.08 -269.77,167.00 C-270.49,161.96 -271.01,156.33 -270.98,153.20 C-270.93,149.97 -269.89,144.87 -268.65,144.02 C-267.87,143.57 -265.83,144.14 -264.23,145.21 C-262.69,146.29 -259.84,151.97 -258.66,155.22 C-256.20,162.13 -254.34,172.42 -252.68,183.80 C-251.72,190.99 -250.78,209.01 -252.04,209.80 C-254.20,208.13 -255.31,206.96 -256.52,204.86 C-260.84,197.28 -266.08,183.08 -266.47,178.23 C-266.67,175.55 -266.78,169.51 -266.83,166.51 C-266.91,161.10 -266.40,157.01 -265.43,156.51 C-264.67,156.20 -263.66,156.49 -262.97,157.26 C-261.37,159.11 -257.13,172.72 -254.64,182.86 C-251.73,195.25 -251.18,199.64 -251.99,199.66 C-253.77,199.56 -258.45,195.56 -259.62,193.85 C-261.36,191.25 -263.64,183.78 -264.05,181.77 C-265.23,175.92 -264.60,162.44 -263.84,158.80" fill="none" stroke="rgb(51, 27, 10)" stroke-width="28.69" stroke-opacity="1.00" stroke-linejoin="round"/>
<path d="M-319.00,98.20 C-319.00,98.20 -319.83,97.49 -319.83,97.49 C-322.11,97.31 -326.95,98.47 -329.59,100.02 C-334.05,102.76 -343.94,112.68 -348.83,117.59 C-353.75,122.31 -365.34,132.88 -369.80,136.21 C-381.56,144.92 -402.50,164.67 -413.96,172.68 C-418.51,175.85 -430.79,183.24 -440.29,188.60 C-451.13,194.59 -456.03,197.05 -465.74,200.63 C-472.83,203.32 -487.39,208.87 -494.85,211.72 C-505.07,215.44 -511.34,216.84 -523.09,218.56 C-528.24,219.39 -536.62,222.88 -540.81,224.16 C-542.57,224.70 -549.26,226.48 -550.50,226.81" fill="none" stroke="rgb(51, 27, 10)" stroke-width="28.69" stroke-opacity="1.00" stroke-linejoin="round"/>
<path d="M-543.77,223.23 C-543.95,223.18 -545.05,224.10 -545.00,224.80 C-544.77,227.54 -537.44,244.13 -536.56,249.11 C-535.14,257.96 -532.70,266.16 -529.17,273.56 C-526.48,279.13 -518.65,292.01 -514.53,297.19 C-512.44,299.80 -497.05,317.76 -494.31,320.70 C-488.84,326.52 -479.80,334.63 -473.99,338.75 C-468.66,342.50 -456.70,348.64 -448.44,351.58 C-441.61,353.88 -427.45,358.53 -420.12,360.87 C-414.64,362.50 -396.21,366.68 -391.73,367.43 C-381.96,368.94 -368.77,370.19 -364.89,370.38 C-358.31,370.68 -273.07,365.36 -242.32,363.61 C-210.60,361.83 -136.69,358.22 -118.12,357.87 C-111.89,357.71 -58.93,354.12 -51.90,353.21 C-47.86,352.69 -12.28,345.64 3.25,342.25 C27.52,336.46 37.77,334.47 61.47,331.30 C75.36,329.41 105.97,325.60 117.97,324.71 C125.12,324.25 140.55,323.65 147.87,323.43 C156.12,323.33 167.07,324.27 176.38,325.75 C184.22,327.07 197.05,330.19 204.95,332.15 C212.63,334.04 221.21,336.14 222.10,336.35" fill="none" stroke="rgb(51, 27, 10)" stroke-width="28.69" stroke-opacity="1.00" stroke-linejoin="round"/>
<path d="M-507.86,226.52 C-507.86,226.52 -507.49,224.14 -507.49,224.14 C-507.49,224.14 -506.97,223.89 -506.97,223.89 C-506.51,226.85 -506.75,241.26 -508.30,246.22 C-509.01,248.43 -513.06,255.56 -515.14,257.71 C-515.83,258.40 -516.98,258.73 -518.11,258.82 C-519.62,258.80 -523.07,254.03 -524.88,249.01 C-525.58,247.02 -527.16,239.47 -527.75,234.88 C-528.02,232.60 -528.01,231.18 -527.59,230.69 C-526.76,229.92 -524.19,229.00 -522.73,229.27 C-520.98,229.62 -518.54,231.46 -517.78,232.82 C-516.50,235.31 -516.57,238.68 -517.49,243.81 C-518.01,246.50 -519.11,250.05 -519.98,250.70 C-521.23,251.57 -523.79,249.91 -524.67,248.05 C-525.43,246.28 -524.67,241.38 -523.61,238.93 C-522.80,237.10 -520.23,232.74 -518.44,230.69 C-517.62,229.75 -512.24,224.27 -510.20,223.12 C-509.59,222.80 -508.39,223.60 -507.60,224.50 C-506.56,225.77 -506.07,226.99 -505.81,228.86 C-505.51,231.72 -506.57,234.49 -509.97,240.66 C-513.51,246.89 -518.35,255.35 -520.23,256.90 C-521.52,257.91 -523.90,259.16 -524.45,258.59 C-531.13,251.15 -534.72,232.15 -535.06,232.56 C-535.67,233.67 -534.57,241.11 -534.30,242.97" fill="none" stroke="rgb(51, 27, 10)" stroke-width="28.69" stroke-opacity="1.00" stroke-linejoin="round"/>
<path d="M-526.10,239.19 C-526.19,240.69 -526.41,244.74 -526.46,246.44 C-526.58,252.78 -525.66,255.51 -524.23,257.20 C-523.88,257.60 -523.16,258.31 -522.07,259.31" fill="none" stroke="rgb(51, 27, 10)" stroke-width="28.69" stroke-opacity="1.00" stroke-linejoin="round"/>
<path d="M-523.00,252.31 C-521.14,255.56 -519.77,260.48 -519.72,262.46 C-519.71,262.73 -519.75,263.20 -519.83,263.87" fill="none" stroke="rgb(51, 27, 10)" stroke-width="28.69" stroke-opacity="1.00" stroke-linejoin="round"/>
<path d="M-299.03,-103.63 C-299.03,-103.63 -297.29,-102.84 -297.29,-102.84 C-293.67,-103.23 -275.06,-105.91 -269.13,-107.00 C-262.06,-108.36 -252.66,-110.88 -249.94,-111.51" fill="none" stroke="rgb(51, 27, 10)" stroke-width="28.69" stroke-opacity="1.00" stroke-linejoin="round"/>
<path d="M-237.76,-106.65 C-239.10,-106.96 -239.83,-107.19 -239.95,-107.33 C-240.25,-107.71 -238.26,-108.40 -236.12,-108.83 C-228.18,-110.45 -208.82,-113.33 -204.87,-113.50 C-200.99,-113.64 -197.32,-113.06 -196.36,-112.91" fill="none" stroke="rgb(51, 27, 10)" stroke-width="28.69" stroke-opacity="1.00" stroke-linejoin="round"/>
<path d="M-215.18,-104.69 C-215.18,-104.69 -213.44,-105.07 -213.44,-105.07 C-218.69,-101.99 -221.85,-99.83 -224.48,-97.09 C-230.37,-91.04 -235.98,-85.78 -244.30,-80.12 C-256.13,-72.29 -257.62,-71.16 -267.84,-62.16 C-269.54,-60.67 -272.68,-57.92 -274.12,-56.67 C-275.84,-55.17 -278.63,-52.89 -280.18,-51.74 C-280.66,-51.38 -281.25,-50.97 -281.96,-50.52" fill="none" stroke="rgb(51, 27, 10)" stroke-width="28.69" stroke-opacity="1.00" stroke-linejoin="round"/>
<path d="M-264.96,-58.23 C-264.77,-58.07 -260.98,-55.80 -255.93,-50.50 C-251.12,-45.60 -241.09,-35.18 -235.87,-29.64 C-227.15,-19.98 -221.06,-13.92 -215.86,-11.26 C-213.93,-10.30 -210.69,-9.29 -207.77,-8.70 C-207.21,-8.59 -206.08,-8.38 -204.37,-8.07" fill="none" stroke="rgb(51, 27, 10)" stroke-width="28.69" stroke-opacity="1.00" stroke-linejoin="round"/>
<path d="M-165.17,-116.25 C-165.09,-115.81 -164.95,-113.65 -164.95,-112.58 C-164.95,-112.38 -167.09,-92.98 -168.00,-84.49 C-169.38,-69.83 -169.00,-42.50 -168.94,-41.45 C-168.74,-38.38 -166.89,-34.98 -165.32,-33.25 C-164.31,-32.19 -162.34,-31.19 -160.97,-31.17 C-158.68,-31.19 -152.93,-33.75 -152.25,-34.19 C-150.25,-35.49 -144.79,-40.29 -142.16,-42.63 C-139.27,-45.26 -136.60,-48.36 -134.51,-51.84 C-131.59,-56.78 -128.56,-66.68 -126.40,-77.19 C-124.06,-89.19 -122.00,-102.46 -121.83,-108.06 C-121.75,-111.36 -122.20,-114.06 -122.64,-115.15 C-122.84,-115.63 -123.37,-116.78 -124.22,-118.59" fill="none" stroke="rgb(51, 27, 10)" stroke-width="28.69" stroke-opacity="1.00" stroke-linejoin="round"/>
<path d="M-192.97,-113.37 C-193.51,-113.04 -193.84,-112.84 -193.95,-112.77 C-194.13,-112.66 -193.57,-112.94 -193.37,-112.98 C-193.15,-113.01 -154.66,-116.02 -145.32,-117.84 C-142.15,-118.47 -138.64,-119.72 -134.83,-121.70 C-130.90,-123.75 -121.72,-128.48 -120.20,-129.18 C-119.62,-129.44 -105.60,-134.01 -101.95,-134.48" fill="none" stroke="rgb(51, 27, 10)" stroke-width="28.69" stroke-opacity="1.00" stroke-linejoin="round"/>
<path d="M-103.27,-133.99 C-99.63,-134.95 -95.70,-137.17 -93.55,-137.87 C-86.92,-140.01 -67.96,-146.28 -66.97,-146.65 C-63.55,-147.94 -46.28,-151.44 -43.15,-151.92 C-38.39,-152.64 -32.79,-152.92 -29.66,-152.48 C-25.90,-151.92 -20.56,-150.21 -16.94,-148.55 C-14.94,-147.61 -11.10,-145.15 -9.45,-142.30 C-7.88,-139.49 -6.64,-133.64 -7.10,-131.44 C-7.72,-128.78 -11.75,-121.40 -12.98,-119.52 C-14.91,-116.63 -19.08,-112.90 -21.89,-110.87 C-24.01,-109.36 -28.83,-107.36 -32.85,-106.12 C-39.27,-104.18 -48.92,-103.74 -53.06,-103.91 C-55.11,-104.00 -57.89,-104.40 -59.62,-104.85 C-60.06,-104.96 -60.69,-105.16 -61.52,-105.44" fill="none" stroke="rgb(51, 27, 10)" stroke-width="28.69" stroke-opacity="1.00" stroke-linejoin="round"/>
<path d="M-36.21,-104.61 C-35.43,-104.07 -33.80,-102.91 -33.34,-102.56 C-31.63,-101.22 -19.83,-91.24 -12.30,-86.59 C-7.29,-83.06 2.66,-76.33 9.23,-73.37 C10.67,-72.74 13.06,-72.09 14.08,-72.13 C15.02,-72.18 17.10,-72.74 18.48,-73.19" fill="none" stroke="rgb(51, 27, 10)" stroke-width="28.69" stroke-opacity="1.00" stroke-linejoin="round"/>
<path d="M98.16,-187.53 C98.77,-186.13 99.16,-185.21 99.33,-184.77 C99.55,-184.21 102.15,-176.25 102.88,-173.80 C103.73,-170.82 104.82,-152.77 105.30,-144.56 C106.17,-134.14 107.72,-122.68 109.71,-114.68 C110.73,-110.76 112.44,-104.21 112.89,-102.20" fill="none" stroke="rgb(51, 27, 10)" stroke-width="28.69" stroke-opacity="1.00" stroke-linejoin="round"/>
<path d="M77.82,-179.94 C80.55,-181.69 94.81,-187.67 101.54,-190.45 C107.61,-192.88 117.81,-196.22 127.02,-197.64 C142.51,-199.78 166.11,-201.33 166.81,-201.34 C167.89,-201.37 169.78,-201.33 170.83,-201.29" fill="none" stroke="rgb(51, 27, 10)" stroke-width="28.69" stroke-opacity="1.00" stroke-linejoin="round"/>
<path d="M108.33,-152.50 C109.34,-151.48 111.12,-149.53 111.47,-149.32 C112.79,-148.55 120.81,-148.29 123.59,-148.68 C130.41,-149.70 144.59,-154.18 150.04,-156.46 C150.50,-156.65 154.24,-158.31 155.72,-158.97 C157.55,-159.77 160.61,-161.10 161.83,-161.63" fill="none" stroke="rgb(51, 27, 10)" stroke-width="28.69" stroke-opacity="1.00" stroke-linejoin="round"/>
<path d="M89.04,-103.04 C90.00,-100.91 90.55,-99.96 91.49,-99.45 C94.45,-97.82 100.89,-95.05 101.82,-94.94 C104.32,-94.66 116.78,-97.09 124.78,-98.18 C135.48,-99.63 142.29,-101.07 148.59,-103.25 C151.61,-104.29 166.67,-110.75 169.47,-112.49 C176.99,-117.19 180.94,-121.49 181.45,-122.34 C181.70,-122.74 182.24,-123.73 183.07,-125.31" fill="none" stroke="rgb(51, 27, 10)" stroke-width="28.69" stroke-opacity="1.00" stroke-linejoin="round"/>
</g>
</svg>
